<?xml version="1.0" encoding="utf-8"?>
<!-- Generator: Adobe Illustrator 16.0.0, SVG Export Plug-In . SVG Version: 6.00 Build 0)  -->
<!DOCTYPE svg PUBLIC "-//W3C//DTD SVG 1.0//EN" "http://www.w3.org/TR/2001/REC-SVG-20010904/DTD/svg10.dtd">
<svg version="1.0" id="Layer_1" xmlns="http://www.w3.org/2000/svg" xmlns:xlink="http://www.w3.org/1999/xlink" x="0px" y="0px"
	 width="851px" height="187px" viewBox="0 0 851 187" enable-background="new 0 0 851 187" xml:space="preserve">
<image display="none" overflow="visible" width="215" height="50" xlink:href="advanced-grower-solutions.png"  transform="matrix(4.1059 0 0 4.1059 -12.7671 -2.0005)">
</image>
<g display="none">
	<path display="inline" d="M282.415,114.389c-2.645,0.982-7.81,2.336-13.345,2.336c-7.01,0-12.298-1.783-16.233-5.533
		c-3.689-3.506-5.842-8.979-5.78-15.251c0-13.098,9.347-21.522,23.06-21.522c5.104,0,9.101,1.045,11.007,1.968l-1.66,6.087
		c-2.275-0.984-5.042-1.783-9.408-1.783c-8.855,0-15.065,5.227-15.065,14.881c0,9.409,5.78,15.005,14.389,15.005
		c2.706,0,4.735-0.369,5.719-0.861V99.384h-7.317v-5.965h14.636V114.389z"/>
</g>
<g display="none">
	<path display="inline" d="M292.875,76.069c2.829-0.492,7.071-0.861,11.438-0.861c5.965,0,10.023,0.984,12.791,3.321
		c2.275,1.906,3.566,4.796,3.566,8.302c0,5.35-3.628,8.978-7.502,10.392v0.185c2.951,1.107,4.734,3.997,5.78,7.994
		c1.291,5.166,2.398,9.963,3.259,11.561h-7.81c-0.615-1.229-1.599-4.611-2.768-9.777c-1.168-5.411-3.136-7.133-7.44-7.256h-3.813
		v17.033h-7.502V76.069z M300.377,94.394h4.489c5.104,0,8.302-2.706,8.302-6.826c0-4.551-3.198-6.641-8.117-6.641
		c-2.398,0-3.936,0.184-4.674,0.369V94.394z"/>
</g>
<g display="none">
	<path display="inline" d="M365.981,94.808c0,13.897-8.425,21.831-19.862,21.831c-11.684,0-19.063-8.918-19.063-21.093
		c0-12.729,7.994-21.707,19.678-21.707C358.848,73.839,365.981,83.001,365.981,94.808z M335.051,95.423
		c0,8.425,4.242,15.128,11.499,15.128c7.317,0,11.438-6.766,11.438-15.436c0-7.81-3.874-15.188-11.438-15.188
		C339.048,79.927,335.051,86.875,335.051,95.423z"/>
</g>
<g display="none">
	<path display="inline" d="M534.981,94.808c0,13.897-8.425,21.831-19.862,21.831c-11.684,0-19.063-8.918-19.063-21.093
		c0-12.729,7.994-21.707,19.678-21.707C527.848,73.839,534.981,83.001,534.981,94.808z M504.051,95.423
		c0,8.425,4.242,15.128,11.499,15.128c7.317,0,11.438-6.766,11.438-15.436c0-7.81-3.874-15.188-11.438-15.188
		C508.048,79.927,504.051,86.875,504.051,95.423z"/>
</g>
<g display="none">
	<path display="inline" d="M586.209,75.515h7.563v35.112h17.033v6.334h-24.597V75.515z"/>
</g>
<g display="none">
	<path display="inline" d="M626.105,75.181v41.446h-7.563V75.181H626.105z"/>
</g>
<g display="none">
	<path display="inline" d="M543.542,117.961V76.515h8.608l10.7,17.771c2.767,4.612,5.165,9.409,7.071,13.897h0.123
		c-0.492-5.534-0.677-10.884-0.677-17.218V76.515h7.011v41.446h-7.81l-10.823-18.202c-2.644-4.55-5.411-9.654-7.44-14.328
		l-0.185,0.062c0.308,5.35,0.369,10.823,0.369,17.648v14.819H543.542z"/>
</g>
<g display="none">
	<path display="inline" d="M634.542,116.961V75.515h8.608l10.7,17.771c2.767,4.612,5.165,9.408,7.071,13.897h0.123
		c-0.492-5.534-0.677-10.884-0.677-17.218V75.515h7.011v41.446h-7.81l-10.823-18.202c-2.644-4.55-5.411-9.654-7.44-14.328
		l-0.185,0.062c0.308,5.35,0.369,10.823,0.369,17.648v14.819H634.542z"/>
</g>
<g display="none">
	<path display="inline" d="M700.392,98.575h-15.619v12.175h17.464v6.211h-25.027V75.515h24.104v6.211h-16.541v10.7h15.619V98.575z"
		/>
</g>
<g display="none">
	<path display="inline" d="M381.245,116.961l-10.146-41.446h8.056l3.936,18.817c1.045,5.042,2.029,10.33,2.705,14.451h0.123
		c0.677-4.366,1.845-9.286,3.014-14.513l4.488-18.755h7.933l4.12,19.063c1.046,4.919,1.906,9.531,2.521,14.02h0.123
		c0.738-4.55,1.722-9.285,2.829-14.327l4.304-18.755h7.687l-11.13,41.446h-8.117l-4.305-19.493c-1.045-4.735-1.783-8.67-2.274-13.16
		h-0.123c-0.738,4.428-1.538,8.425-2.768,13.16l-4.797,19.493H381.245z"/>
</g>
<g display="none">
	<path display="inline" d="M452.392,98.575h-15.619v12.175h17.464v6.211h-25.027V75.515h24.104v6.211h-16.541v10.7h15.619V98.575z"
		/>
</g>
<g display="none">
	<path display="inline" d="M462.542,75.736c2.829-0.492,7.071-0.861,11.438-0.861c5.965,0,10.023,0.984,12.791,3.321
		c2.275,1.906,3.566,4.796,3.566,8.302c0,5.35-3.628,8.978-7.502,10.392v0.185c2.951,1.107,4.734,3.997,5.78,7.995
		c1.291,5.164,2.398,9.961,3.259,11.561h-7.81c-0.615-1.23-1.599-4.613-2.768-9.777c-1.168-5.412-3.136-7.134-7.44-7.257h-3.813
		v17.034h-7.502V75.736z M470.044,94.061h4.489c5.104,0,8.302-2.706,8.302-6.826c0-4.551-3.198-6.641-8.117-6.641
		c-2.398,0-3.936,0.184-4.674,0.369V94.061z"/>
</g>
<g>
	<path fill="#8BC642" d="M223.792,113.757c-4.132,1.406-11.956,3.34-19.779,3.34c-10.813,0-18.636-2.725-24.086-7.999
		c-5.45-5.099-8.439-12.834-8.351-21.537c0.088-19.691,14.417-30.943,33.844-30.943c7.648,0,13.538,1.494,16.438,2.901
		l-2.813,10.725c-3.252-1.407-7.296-2.549-13.801-2.549c-11.164,0-19.603,6.329-19.603,19.163c0,12.219,7.648,19.427,18.636,19.427
		c3.077,0,5.538-0.352,6.593-0.879V93.011h-9.142V82.55h22.064V113.757z"/>
	<path fill="#8BC642" d="M238.643,58.024c4.308-0.703,10.725-1.23,17.845-1.23c8.791,0,14.944,1.318,19.164,4.659
		c3.516,2.813,5.45,6.945,5.45,12.395c0,7.56-5.362,12.746-10.461,14.592v0.264c4.132,1.67,6.417,5.626,7.912,11.076
		c1.846,6.681,3.692,14.417,4.835,16.702h-13.713c-0.967-1.67-2.374-6.505-4.131-13.801c-1.583-7.384-4.132-9.406-9.582-9.494
		h-4.043v23.295h-13.274V58.024z M251.917,83.517h5.274c6.681,0,10.636-3.34,10.636-8.527c0-5.45-3.692-8.175-9.845-8.263
		c-3.252,0-5.099,0.264-6.065,0.439V83.517z"/>
	<path fill="#8BC642" d="M346.851,86.242c0,19.427-11.779,31.207-29.097,31.207c-17.581,0-27.866-13.273-27.866-30.151
		c0-17.757,11.34-31.031,28.833-31.031C336.917,56.266,346.851,69.891,346.851,86.242z M304.041,87.033
		c0,11.604,5.45,19.778,14.417,19.778c9.054,0,14.241-8.614,14.241-20.13c0-10.636-5.098-19.779-14.329-19.779
		C309.315,66.902,304.041,75.517,304.041,87.033z"/>
	<path fill="#8BC642" d="M368.999,116.481l-14.065-59.249h14.329l4.483,24.438c1.319,7.032,2.549,14.68,3.516,20.658h0.176
		c0.967-6.417,2.374-13.538,3.868-20.833l5.011-24.262h14.241l4.747,24.965c1.319,6.944,2.286,13.274,3.165,19.867h0.176
		c0.879-6.593,2.197-13.538,3.428-20.57l4.835-24.262h13.625l-15.295,59.249h-14.504l-5.011-25.493
		c-1.143-5.978-2.11-11.516-2.813-18.285h-0.176c-1.055,6.681-2.022,12.307-3.428,18.285l-5.626,25.493H368.999z"/>
	<path fill="#8BC642" d="M474.48,91.428h-21.801v14.065h24.35v10.988h-37.8V57.233h36.569v10.988h-23.119v12.307h21.801V91.428z"/>
	<path fill="#8BC642" d="M487.926,58.024c4.308-0.703,10.725-1.23,17.845-1.23c8.791,0,14.944,1.318,19.164,4.659
		c3.516,2.813,5.45,6.945,5.45,12.395c0,7.56-5.362,12.746-10.461,14.592v0.264c4.131,1.67,6.417,5.626,7.911,11.076
		c1.846,6.681,3.692,14.417,4.835,16.702h-13.713c-0.968-1.67-2.374-6.505-4.132-13.801c-1.582-7.384-4.132-9.406-9.582-9.494
		h-4.044v23.295h-13.273V58.024z M501.199,83.517h5.274c6.682,0,10.637-3.34,10.637-8.527c0-5.45-3.691-8.175-9.846-8.263
		c-3.252,0-5.098,0.264-6.065,0.439V83.517z"/>
</g>
<g>
	<path fill="#030303" d="M596.04,86.76c0,19.427-11.779,31.207-29.097,31.207c-17.582,0-27.866-13.273-27.866-30.151
		c0-17.757,11.34-31.031,28.833-31.031C586.106,56.785,596.04,70.41,596.04,86.76z M553.229,87.552
		c0,11.604,5.45,19.778,14.417,19.778c9.054,0,14.24-8.614,14.24-20.13c0-10.636-5.099-19.779-14.328-19.779
		C558.504,67.421,553.229,76.036,553.229,87.552z"/>
	<path fill="#030303" d="M605.265,117V57.751h15.647l12.307,21.713c3.517,6.241,7.032,13.625,9.67,20.306h0.264
		c-0.879-7.824-1.143-15.823-1.143-24.702V57.751h12.307V117h-14.065l-12.658-22.855c-3.517-6.329-7.384-13.977-10.285-20.922
		l-0.264,0.088c0.352,7.824,0.527,16.175,0.527,25.845V117H605.265z"/>
	<path fill="#030303" d="M670.31,57.751h13.449v47.997h23.56V117H670.31V57.751z"/>
	<path fill="#030303" d="M730.872,57.751V117h-13.449V57.751H730.872z"/>
	<path fill="#030303" d="M743.353,117V57.751H759l12.307,21.713c3.517,6.241,7.032,13.625,9.67,20.306h0.264
		c-0.879-7.824-1.143-15.823-1.143-24.702V57.751h12.307V117h-14.065l-12.658-22.855c-3.517-6.329-7.384-13.977-10.285-20.922
		l-0.264,0.088c0.352,7.824,0.527,16.175,0.527,25.845V117H743.353z"/>
	<path fill="#030303" d="M841.45,91.947h-21.801v14.065H844V117h-37.8V57.751h36.569V68.74h-23.12v12.307h21.801V91.947z"/>
</g>
<g>
	<g id="Desktop">
		<g>
			<path fill="#010101" d="M108.149,170.229h-8.771c-4.839,0-8.771-3.932-8.771-8.771v-13.156H64.295v13.156
				c0,4.839-3.929,8.771-8.771,8.771h-8.771c-2.426,0-4.386,1.966-4.386,4.386c0,2.424,1.96,4.385,4.386,4.385h61.396
				c2.424,0,4.386-1.961,4.386-4.385C112.535,172.195,110.574,170.229,108.149,170.229z M139.944,38.667H14.959
				c-4.236,0-7.674,3.683-7.674,8.223v84.419c0,4.54,3.438,8.223,7.674,8.223h124.984c4.236,0,7.674-3.683,7.674-8.223V46.89
				C147.618,42.35,144.18,38.667,139.944,38.667z M138.847,130.761H16.056V47.438h122.791V130.761z"/>
		</g>
	</g>
</g>
<linearGradient id="SVGID_1_" gradientUnits="userSpaceOnUse" x1="-3.8394" y1="-355.3364" x2="11.5316" y2="-348.1689" gradientTransform="matrix(13.6357 0 0 13.6357 182.3761 4858.0781)">
	<stop  offset="0" style="stop-color:#FFFFFF;stop-opacity:0.2"/>
	<stop  offset="1" style="stop-color:#FFFFFF;stop-opacity:0"/>
</linearGradient>
<path display="none" fill="url(#SVGID_1_)" d="M361.262-90C244.405-90,103.261-6.907,103.261,96.273
	c0,16.771,4.46,32.514,13.14,47.088c-16.675,25.064-26.776,46.733-26.776,59.821c0,3.769,3.049,6.817,6.818,6.817
	c3.769,0,6.818-3.049,6.818-6.817c0-9.749,7.916-27.071,21.403-47.948c2.835,3.563,5.847,7.072,9.244,10.469
	c20.333,20.335,43.696,30.648,69.43,30.648c103.18,0,186.273-141.146,186.273-258.001C389.611-77.283,376.895-90,361.262-90z"/>
<path display="none" fill="#313C42" d="M128.2,10.337c-41.546,0-91.728,29.542-91.728,66.227c0,5.962,1.585,11.56,4.671,16.741
	c-5.928,8.911-9.52,16.615-9.52,21.269c0,1.34,1.084,2.423,2.424,2.423s2.424-1.083,2.424-2.423c0-3.466,2.814-9.625,7.609-17.048
	c1.008,1.267,2.079,2.515,3.287,3.723c7.229,7.229,15.535,10.896,24.685,10.896c36.684,0,66.226-50.183,66.226-91.728
	C138.279,14.858,133.758,10.337,128.2,10.337z"/>
<path display="none" fill="#7DB342" d="M72.053,107.296c-7.816,0-14.97-3.188-21.257-9.476c-1.463-1.463-2.74-2.977-3.866-4.53
	c14.72-20.939,42.844-49.232,70.333-58.848c1.264-0.443,1.93-1.825,1.489-3.089c-0.441-1.262-1.823-1.927-3.089-1.489
	C88.758,39.277,60.169,66.767,44.24,88.827c-1.918-3.867-2.919-7.961-2.919-12.264c0-33.055,47.771-61.378,86.879-61.378
	c2.885,0,5.231,2.346,5.231,5.232C133.431,59.524,105.108,107.296,72.053,107.296z"/>
<path display="none" opacity="0.1" fill="#010101" enable-background="new    " d="M130.941,16.074
	c-1.356,38.522-29.077,83.95-61.313,83.95c-7.682,0-14.719-3.098-20.927-9.172c-0.597,0.816-1.212,1.642-1.772,2.438
	c1.126,1.554,2.403,3.067,3.866,4.53c6.287,6.287,13.441,9.476,21.257,9.476c33.055,0,61.378-47.771,61.378-86.879
	C133.431,18.559,132.404,17.002,130.941,16.074z"/>
<linearGradient id="SVGID_2_" gradientUnits="userSpaceOnUse" x1="-10.0029" y1="-352.8369" x2="-4.5376" y2="-350.2884" gradientTransform="matrix(13.6357 0 0 13.6357 182.3761 4858.0781)">
	<stop  offset="0" style="stop-color:#FFFFFF;stop-opacity:0.2"/>
	<stop  offset="1" style="stop-color:#FFFFFF;stop-opacity:0"/>
</linearGradient>
<path display="none" fill="url(#SVGID_2_)" d="M128.2,10.337c-41.546,0-91.728,29.542-91.728,66.227
	c0,5.962,1.585,11.56,4.671,16.741c-5.928,8.911-9.52,16.615-9.52,21.269c0,1.34,1.084,2.423,2.424,2.423s2.424-1.083,2.424-2.423
	c0-3.466,2.814-9.625,7.609-17.048c1.008,1.267,2.079,2.515,3.287,3.723c7.229,7.229,15.535,10.896,24.685,10.896
	c36.684,0,66.226-50.183,66.226-91.728C138.279,14.858,133.758,10.337,128.2,10.337z"/>
<g>
	<g>
		<g>
			<path display="none" fill="#8BC642" d="M92.549,132.495c0,0,14.058,38.045,53.625,41.783
				c39.568,3.738,89.668-28.239,89.668-28.239s-43.205-40.796-82.772-44.537C113.496,97.762,92.549,132.495,92.549,132.495z"/>
			<path fill="#8BC642" stroke="#FFFFFF" stroke-width="2" stroke-miterlimit="10" d="M54.083,46.143
				c-30.407,24.48-8.78,60.964-8.78,60.964c11.268,5.264,40.163,19.422,63.663-11.331c24.394-31.92,31.373-89.672,31.373-89.672
				S85.389,20.941,54.083,46.143z"/>
			<path display="none" fill="#8BC642" d="M36.493,148.473c-5.255,11.311-13.493,36.561,1.859,61.733
				c20.691,33.9,76.323,54.836,76.323,54.836s6.864-58.981-13.813-92.88C87.26,149.861,65.13,143.956,51.566,142.55l0.001-0.007
				l-54.472-5.149L9.532,6.149c-44.345-4.191-85.025,45.385-91.138,109.884c-6.111,64.515,24.537,120.819,68.881,125.011l9.13-96.36
				L36.493,148.473z M-32.653,68.799c0.062-0.65,1.062-0.497,1.001,0.148C-31.714,69.598-32.714,69.445-32.653,68.799z"/>
		</g>
		<rect x="45.047" y="103.131" fill="#8BC642" width="7.876" height="13.795"/>
	</g>
</g>
<polygon display="none" fill="#FFFFFF" points="108.271,19.919 133.877,12.935 131.083,39.867 124.402,34.022 100.286,60.649 
	97.695,63.51 94.999,60.927 87.468,53.721 74.041,68.551 72.965,69.74 71.844,68.667 66.71,63.753 55.648,75.964 65.703,61.415 
	66.276,60.59 67.244,61.332 72.342,65.228 84.721,47.316 86.276,45.063 88.938,47.096 96.201,52.648 114.843,25.668 "/>
<g>
	<g>
		
			<rect x="103.799" y="32.076" transform="matrix(0.5808 -0.8141 0.8141 0.5808 18.1498 107.7763)" fill="#FFFFFF" width="19.828" height="8.381"/>
		<g>
			<path fill="#FFFFFF" d="M129.813,15.486l-18.276,6.689c-0.194,0.07-0.331,0.243-0.361,0.445
				c-0.028,0.203,0.058,0.405,0.223,0.523l17.852,12.767c0.167,0.119,0.385,0.135,0.568,0.043c0.081-0.042,0.15-0.103,0.202-0.174
				c0.063-0.089,0.101-0.197,0.104-0.312l0.423-19.457c0.003-0.182-0.082-0.352-0.229-0.457
				C130.172,15.449,129.982,15.423,129.813,15.486z"/>
			
				<rect x="69.81" y="50.692" transform="matrix(0.3128 -0.9498 0.9498 0.3128 7.9973 120.8182)" fill="#FFFFFF" width="35.375" height="8.38"/>
			<polygon fill="#FFFFFF" points="70.909,70.31 51.116,101.575 53.5,94.25 63.531,66.332 			"/>
			
				<rect x="88.796" y="37.894" transform="matrix(0.9947 0.1024 -0.1024 0.9947 4.8367 -10.0597)" fill="#FFFFFF" width="23.224" height="8.38"/>
		</g>
	</g>
	
		<rect x="61.94" y="68.666" transform="matrix(0.9394 0.3427 -0.3427 0.9394 29.4308 -20.8407)" fill="#FFFFFF" width="23.491" height="8.38"/>
</g>
<g>
</g>
<g>
</g>
<g>
</g>
<g>
</g>
<g>
</g>
<g>
</g>
</svg>
